<svg xmlns="http://www.w3.org/2000/svg" width="48" height="48">
    <g data-name="타원 14" style="fill:#fff;stroke:#e4e4e4">
        <circle cx="24" cy="24" r="24" style="stroke:none"/>
        <circle cx="24" cy="24" r="23.5" style="fill:none"/>
    </g>
    <path data-name="Icon ionic-logo-youtube" d="M22.871 8.313a3.5 3.5 0 0 0-3.328-3.651 162.775 162.775 0 0 0-7.627-.162h-.809c-2.59 0-5.135.045-7.627.162a3.5 3.5 0 0 0-3.323 3.66c-.112 1.6-.162 3.2-.157 4.8s.045 3.2.153 4.807A3.507 3.507 0 0 0 3.476 21.6c2.617.121 5.3.175 8.031.171s5.41-.045 8.031-.171a3.508 3.508 0 0 0 3.328-3.665c.108-1.605.157-3.206.153-4.812s-.04-3.204-.148-4.81zM9.308 17.536V8.7l6.52 4.416z" transform="translate(12.873 11.326)" style="fill:#333"/>
</svg>
