<svg id="btn_ft_sns_blog_normal" xmlns="http://www.w3.org/2000/svg" width="48" height="48">
    <defs>
        <style>
            .cls-3{fill:#fff}
        </style>
    </defs>
    <g id="타원_14" data-name="타원 14" style="stroke:#e4e4e4;fill:#fff">
        <circle cx="24" cy="24" r="24" style="stroke:none"/>
        <circle cx="24" cy="24" r="23.5" style="fill:none"/>
    </g>
    <g id="그룹_5461" data-name="그룹 5461" transform="translate(11.977 15.885)">
        <g id="그룹_779" data-name="그룹 779">
            <path id="패스_239" data-name="패스 239" d="M145.568 240.776h-16.452a3.8 3.8 0 0 0-3.8 3.812v9.044a3.8 3.8 0 0 0 3.8 3.81h5.668l1.934 3.148a.565.565 0 0 0 .062.091.648.648 0 0 0 1.123 0 .409.409 0 0 0 .066-.1l1.932-3.148h5.668a3.805 3.805 0 0 0 3.8-3.81v-9.044a3.808 3.808 0 0 0-3.8-3.812" transform="translate(-125.319 -240.776)" style="fill:#333"/>
            <path id="패스_240" data-name="패스 240" class="cls-3" d="M133.19 252.111a1.957 1.957 0 0 0-1.254.582v-2.336h-1.47v6.132h1.486v-.48a1.412 1.412 0 0 0 1.237.636 2.172 2.172 0 0 0 2.073-2.294s-.076-2.24-2.073-2.24m-.325 3.235a.945.945 0 1 1 .945-.944.943.943 0 0 1-.945.944" transform="translate(-127.849 -245.485)"/>
            <path id="패스_241" data-name="패스 241" class="cls-3" d="M140.832 250.08v1.42s.67-.03.67 1.223v3.629h1.42v-3.965s.062-2.308-2.09-2.308" transform="translate(-132.943 -245.349)"/>
            <path id="패스_242" data-name="패스 242" class="cls-3" d="M149.413 253.848s-2.433 0-2.433 2.27a2.2 2.2 0 0 0 2.433 2.243s2.488 0 2.488-2.243a2.234 2.234 0 0 0-2.488-2.27m0 3.214a.945.945 0 1 1 .945-.944.944.944 0 0 1-.945.944" transform="translate(-135.965 -247.201)"/>
            <path id="패스_243" data-name="패스 243" class="cls-3" d="M161.439 253.991v.418a1.61 1.61 0 0 0-1.236-.561 2.027 2.027 0 0 0-2.082 2.254s-.023 2.185 2.024 2.185a1.694 1.694 0 0 0 1.294-.562v.343s.1 1.077-.938 1.077h-.356v1.3h.574a2.137 2.137 0 0 0 2.152-2.3v-4.159zm-.88 3.07a.945.945 0 1 1 .945-.944.945.945 0 0 1-.945.944" transform="translate(-141.44 -247.2)"/>
        </g>
    </g>
</svg>
