<svg id="logo_gnb" xmlns="http://www.w3.org/2000/svg" width="200" height="40">
    <defs>
        <style>
            .cls-3{fill:#1a1818}.cls-4{fill:#181818}
        </style>
    </defs>
    <path id="사각형_5343" data-name="사각형 5343" style="fill:none" d="M0 0h200v40H0z"/>
    <g id="logo" transform="translate(-183.249 -335.686)">
        <path id="패스_10" data-name="패스 10" d="m436.274 350.793-1.041-.966-2.616 2.44 1.746-5.969-2.328.387-1.661-2.948-1.912 3.1-1.827-.778 1.246 5.816-2.241-2.4-.836 1.242-2.907-.544.415 3.333-1.032.582 4.65 4.342-.54 1.436 4.159-.776v5.115h1.572v-5.115l4.24.544-.416-1.628 4.9-3.8-1.21-1.2.376-2.6z" transform="translate(-56.598 -1.907)" style="fill:#be1d25"/>
        <g id="그룹_4209" data-name="그룹 4209" transform="translate(246.923 349.645)">
            <path id="패스_11" data-name="패스 11" class="cls-3" d="M282.319 373.251a9.49 9.49 0 0 1-5.368 1.537 9.814 9.814 0 0 1-4.144-.886 10.233 10.233 0 0 1-3.441-2.553 10.509 10.509 0 0 1-1.929-3.233 11.3 11.3 0 0 1-.651-3.832 10.191 10.191 0 0 1 .782-3.961 10.52 10.52 0 0 1 2.345-3.415 10.32 10.32 0 0 1 3.206-2.163 9.961 9.961 0 0 1 3.857-.756 9.671 9.671 0 0 1 5.448 1.564 10.979 10.979 0 0 1 3.858 4.8h-4.327a6.169 6.169 0 0 0-2.214-1.955 6.41 6.41 0 0 0-2.789-.574 6.04 6.04 0 0 0-2.346.444 5.489 5.489 0 0 0-1.955 1.355 6.529 6.529 0 0 0-1.46 2.188 6.685 6.685 0 0 0-.469 2.5 7.47 7.47 0 0 0 .443 2.606 5.953 5.953 0 0 0 1.329 2.111 6.376 6.376 0 0 0 2.06 1.434 5.725 5.725 0 0 0 2.4.521 6.158 6.158 0 0 0 2.736-.573 5.962 5.962 0 0 0 2.111-1.824h4.509a11.569 11.569 0 0 1-3.991 4.665z" transform="translate(-266.786 -353.99)"/>
            <path id="패스_12" data-name="패스 12" class="cls-3" d="M299.138 374.545H295.1l7.819-20.042h3.415l7.82 20.042h-4.146l-2.11-5.525h-6.621zm5.474-14.412-1.929 5.16h3.83z" transform="translate(-273.518 -354.112)"/>
            <path id="패스_13" data-name="패스 13" class="cls-3" d="M323.478 374.545V354.5h3.65l8.366 12.876V354.5h3.779v20.042h-3.467l-8.5-13.213v13.213z" transform="translate(-280.266 -354.112)"/>
            <path id="패스_14" data-name="패스 14" class="cls-3" d="M351.659 374.545h-4.038l7.818-20.042h3.414l7.818 20.042h-4.143l-2.111-5.525H353.8zm5.474-14.412-1.928 5.16h3.831z" transform="translate(-286.007 -354.112)"/>
            <path id="패스_15" data-name="패스 15" class="cls-3" d="M375.418 374.545V354.5h6.647a9.641 9.641 0 0 1 10.06 10.061 10.349 10.349 0 0 1-1.068 4.691 9.537 9.537 0 0 1-2.971 3.519 9.25 9.25 0 0 1-3.258 1.433 15.478 15.478 0 0 1-3.546.338zm6.543-3.6a6.245 6.245 0 0 0 4.664-1.694 6.319 6.319 0 0 0 1.642-4.639 6.235 6.235 0 0 0-1.746-4.77 7.014 7.014 0 0 0-5.082-1.693h-2.293v12.8z" transform="translate(-292.616 -354.112)"/>
            <path id="패스_16" data-name="패스 16" class="cls-3" d="M404.179 374.545h-4.038l7.818-20.042h3.414l7.82 20.042h-4.144l-2.111-5.525h-6.621zm5.475-14.412-1.929 5.16h3.831z" transform="translate(-298.495 -354.112)"/>
        </g>
        <g id="그룹_4210" data-name="그룹 4210" transform="translate(183.249 349.085)">
            <path id="패스_17" data-name="패스 17" class="cls-3" d="M183.249 353.977h1l.383.047v8.993a3.911 3.911 0 0 0 1.1.047h4.783l.191-.047v-9.04h1.394V375.4h-1.387v-10.853l-6.027-.048-.048 10.953h-1.387z" transform="translate(-183.249 -353.427)"/>
            <path id="패스_18" data-name="패스 18" class="cls-3" d="M205.728 354.792h1.292v1.387q-5.549.048-8.323 5.548a5.9 5.9 0 0 0-.335 1.052l-.1.335-.047.1a2.976 2.976 0 0 0-.1.813h5.788v1.435h-5.835a4.554 4.554 0 0 0 .191 1.817l.048.335.048.1q1.961 6.075 8.657 6.552v1.387a10.191 10.191 0 0 1-7.223-2.87 10.042 10.042 0 0 1-3.156-7.079 10.362 10.362 0 0 1 2.392-7.222 10.776 10.776 0 0 1 6.703-3.69z" transform="translate(-186.428 -353.621)"/>
            <path id="패스_19" data-name="패스 19" class="cls-3" d="M212.366 353.909h.717a1.665 1.665 0 0 1 .669.048V374a3.907 3.907 0 0 0 1.1.047h4.305v1.387h-6.791z" transform="translate(-190.172 -353.407)"/>
            <path id="패스_20" data-name="패스 20" class="cls-3" d="M224.131 353.909h.718a1.666 1.666 0 0 1 .669.048V374a3.91 3.91 0 0 0 1.1.047h4.305v1.387h-6.792z" transform="translate(-192.97 -353.407)"/>
            <path id="패스_21" data-name="패스 21" class="cls-3" d="M245.553 353.327a11.706 11.706 0 0 1 8.227 2.248 11.416 11.416 0 0 1 4.352 7.557q.479 6.649-5.5 10.667-5.978 3.4-12.292-.526-5.932-4.449-4.162-11.91 2.009-6.601 9.375-8.036zm.478 1.386a9.969 9.969 0 0 0-7.269 4.448 8.993 8.993 0 0 0-1.053 8.275 9.765 9.765 0 0 0 5.74 5.835 9.631 9.631 0 1 0 2.582-18.559z" transform="translate(-195.738 -353.256)"/>
        </g>
        <g id="그룹_4211" data-name="그룹 4211" transform="translate(183.3 335.717)">
            <path id="패스_22" data-name="패스 22" class="cls-4" d="M184.764 342.159h-1.448v-5.892h1.448a3.575 3.575 0 0 1 2.424.713 2.8 2.8 0 0 1 .808 2.207 3.186 3.186 0 0 1-.259 1.342 2.556 2.556 0 0 1-.7.926 2.871 2.871 0 0 1-1.029.534 4.409 4.409 0 0 1-1.244.17zm.13-5.1h-.625v4.307h.595a1.926 1.926 0 0 0 2.111-2.165 2.217 2.217 0 0 0-.518-1.62 2.113 2.113 0 0 0-1.563-.521z" transform="translate(-183.316 -335.848)"/>
            <path id="패스_23" data-name="패스 23" class="cls-4" d="M193.719 341.363a.054.054 0 0 1 .069-.011.067.067 0 0 1 .038.065v.755a1.359 1.359 0 0 1-.663.4 3.282 3.282 0 0 1-.976.137 2.274 2.274 0 0 1-.842-.152 1.825 1.825 0 0 1-.659-.442 2.031 2.031 0 0 1-.427-.7 2.694 2.694 0 0 1-.152-.937 2.654 2.654 0 0 1 .152-.918 2.175 2.175 0 0 1 .423-.716 1.9 1.9 0 0 1 .648-.469 2.028 2.028 0 0 1 .835-.168 1.72 1.72 0 0 1 1.391.564 2.41 2.41 0 0 1 .476 1.6v.3h-3v.023a1.347 1.347 0 0 0 .373.945 1.246 1.246 0 0 0 .884.313 1.859 1.859 0 0 0 .774-.164 2.433 2.433 0 0 0 .656-.425zm-2.63-1.41h1.959v-.023a1.083 1.083 0 0 0-.236-.755.844.844 0 0 0-.656-.259.968.968 0 0 0-.682.274 1.341 1.341 0 0 0-.385.755z" transform="translate(-184.931 -336.309)"/>
            <path id="패스_24" data-name="패스 24" class="cls-4" d="M198.683 339.518a3.523 3.523 0 0 0-.675-.434 1.548 1.548 0 0 0-.667-.145.593.593 0 0 0-.4.111.485.485 0 0 0 .011.655 1.375 1.375 0 0 0 .354.187l.488.213c.158.072.307.145.45.221a1.794 1.794 0 0 1 .374.263 1.108 1.108 0 0 1 .252.343 1.075 1.075 0 0 1 .091.461 1.177 1.177 0 0 1-.13.553 1.266 1.266 0 0 1-.351.419 1.658 1.658 0 0 1-.526.267 2.194 2.194 0 0 1-.656.1 3.132 3.132 0 0 1-.8-.107 2.307 2.307 0 0 1-.77-.374v-.8a.06.06 0 0 1 .034-.061.076.076 0 0 1 .072.008 3.051 3.051 0 0 0 .713.419 1.885 1.885 0 0 0 .72.152.912.912 0 0 0 .545-.13.448.448 0 0 0 .171-.381.4.4 0 0 0-.13-.293 1.49 1.49 0 0 0-.419-.255l-.434-.191a4.541 4.541 0 0 1-.5-.248 1.548 1.548 0 0 1-.358-.282 1.109 1.109 0 0 1-.221-.347 1.227 1.227 0 0 1-.076-.457 1.029 1.029 0 0 1 .107-.465 1.113 1.113 0 0 1 .3-.374 1.417 1.417 0 0 1 .48-.248 2.145 2.145 0 0 1 .64-.088 2.547 2.547 0 0 1 .7.1 2.378 2.378 0 0 1 .713.358v.8a.06.06 0 0 1-.034.061.076.076 0 0 1-.068-.011z" transform="translate(-186.267 -336.309)"/>
            <path id="패스_25" data-name="패스 25" class="cls-4" d="M202.632 341.438a.069.069 0 0 1 .072-.015.06.06 0 0 1 .034.061v.671a1.155 1.155 0 0 1-.415.2 1.9 1.9 0 0 1-.5.065 1.13 1.13 0 0 1-.831-.278 1.159 1.159 0 0 1-.259-.827v-2.569h-.678v-.724h.678v-1.006h.93v1.006h1.052v.724h-1.052v2.477a.5.5 0 0 0 .084.32.333.333 0 0 0 .267.1.988.988 0 0 0 .343-.053 1.037 1.037 0 0 0 .275-.152z" transform="translate(-187.296 -336.026)"/>
            <path id="패스_26" data-name="패스 26" class="cls-4" d="M204.036 336.6a.574.574 0 0 1 .168-.412.595.595 0 0 1 .659-.126.7.7 0 0 1 .194.13.627.627 0 0 1 .133.187.518.518 0 0 1 0 .442.616.616 0 0 1-.328.313.6.6 0 0 1-.232.046.558.558 0 0 1-.236-.05.644.644 0 0 1-.187-.13.6.6 0 0 1-.126-.183.529.529 0 0 1-.045-.217zm1.075 1.181v4.319h-.953v-4.314z" transform="translate(-188.243 -335.788)"/>
            <path id="패스_27" data-name="패스 27" class="cls-4" d="M207.671 338.85h.008a1.671 1.671 0 0 1 .514-.45 1.4 1.4 0 0 1 .713-.183 1.361 1.361 0 0 1 1.086.427 1.952 1.952 0 0 1 .37 1.3v2.675h-.938V339.9a1.081 1.081 0 0 0-.2-.743.731.731 0 0 0-.556-.21.858.858 0 0 0-.389.091.956.956 0 0 0-.32.263 1.3 1.3 0 0 0-.217.419 1.82 1.82 0 0 0-.08.56v2.34h-.938v-4.314h.9z" transform="translate(-188.882 -336.311)"/>
            <path id="패스_28" data-name="패스 28" class="cls-4" d="M212.649 339.512a.061.061 0 0 1-.072.011.068.068 0 0 1-.034-.065v-.823a3.245 3.245 0 0 1 .774-.381 2.87 2.87 0 0 1 .918-.137 1.48 1.48 0 0 1 1.124.377 1.686 1.686 0 0 1 .354 1.185v2.921h-.838l-.046-.526h-.008a1.475 1.475 0 0 1-.534.446 1.567 1.567 0 0 1-.724.172 1.5 1.5 0 0 1-1.056-.335 1.233 1.233 0 0 1-.362-.953 1.377 1.377 0 0 1 .381-1 1.86 1.86 0 0 1 1.1-.5l1.151-.191v-.038a.914.914 0 0 0-.149-.583.681.681 0 0 0-.545-.179 1.893 1.893 0 0 0-.694.133 2.7 2.7 0 0 0-.74.466zm2.149 1.364v-.48l-.915.13a1.018 1.018 0 0 0-.591.259.723.723 0 0 0-.21.541.547.547 0 0 0 .171.442.715.715 0 0 0 .476.145.935.935 0 0 0 .4-.088 1.165 1.165 0 0 0 .339-.236 1.27 1.27 0 0 0 .24-.332.843.843 0 0 0 .092-.381z" transform="translate(-190.171 -336.288)"/>
            <path id="패스_29" data-name="패스 29" class="cls-4" d="M219.862 341.438a.07.07 0 0 1 .073-.015.061.061 0 0 1 .034.061v.671a1.161 1.161 0 0 1-.415.2 1.9 1.9 0 0 1-.5.065 1.127 1.127 0 0 1-.83-.278 1.156 1.156 0 0 1-.259-.827v-2.569h-.678v-.724h.678v-1.006h.929v1.006h1.052v.724h-1.052v2.477a.491.491 0 0 0 .085.32.332.332 0 0 0 .266.1.99.99 0 0 0 .344-.053 1.044 1.044 0 0 0 .273-.152z" transform="translate(-191.393 -336.026)"/>
            <path id="패스_30" data-name="패스 30" class="cls-4" d="M221.266 336.6a.574.574 0 0 1 .168-.412.595.595 0 0 1 .659-.126.7.7 0 0 1 .194.13.628.628 0 0 1 .133.187.518.518 0 0 1 0 .442.617.617 0 0 1-.328.313.6.6 0 0 1-.232.046.558.558 0 0 1-.236-.05.645.645 0 0 1-.187-.13.6.6 0 0 1-.126-.183.529.529 0 0 1-.045-.217zm1.075 1.181v4.319h-.953v-4.314z" transform="translate(-192.34 -335.788)"/>
            <path id="패스_31" data-name="패스 31" class="cls-4" d="M225.537 342.689a2.061 2.061 0 0 1-.9-.183 1.784 1.784 0 0 1-.629-.492 2.059 2.059 0 0 1-.366-.713 3.031 3.031 0 0 1-.118-.854 2.9 2.9 0 0 1 .13-.88 2.133 2.133 0 0 1 .381-.713 1.736 1.736 0 0 1 .629-.476 2.306 2.306 0 0 1 1.745 0 1.729 1.729 0 0 1 .629.476 2.107 2.107 0 0 1 .381.713 3.052 3.052 0 0 1 .008 1.734 2.08 2.08 0 0 1-.37.713 1.784 1.784 0 0 1-.625.492 2.032 2.032 0 0 1-.895.183zm0-.755a.9.9 0 0 0 .777-.354 1.941 1.941 0 0 0 .259-1.132 1.977 1.977 0 0 0-.255-1.143 1.041 1.041 0 0 0-1.559 0 1.956 1.956 0 0 0-.259 1.143 1.921 1.921 0 0 0 .263 1.132.9.9 0 0 0 .774.354z" transform="translate(-192.877 -336.309)"/>
            <path id="패스_32" data-name="패스 32" class="cls-4" d="M230.67 338.85h.008a1.668 1.668 0 0 1 .514-.45 1.4 1.4 0 0 1 .713-.183 1.359 1.359 0 0 1 1.086.427 1.952 1.952 0 0 1 .37 1.3v2.675h-.938V339.9a1.077 1.077 0 0 0-.2-.743.729.729 0 0 0-.556-.21.852.852 0 0 0-.388.091.951.951 0 0 0-.321.263 1.32 1.32 0 0 0-.217.419 1.822 1.822 0 0 0-.079.56v2.34h-.938v-4.314h.9z" transform="translate(-194.351 -336.311)"/>
            <path id="패스_33" data-name="패스 33" class="cls-4" d="M241.9 340.537a.047.047 0 0 1 .068-.015.074.074 0 0 1 .039.069v.968a2.494 2.494 0 0 1-.873.5 3.36 3.36 0 0 1-1.026.152 2.823 2.823 0 0 1-1.116-.21 2.292 2.292 0 0 1-.835-.6 2.673 2.673 0 0 1-.522-.949 4.081 4.081 0 0 1-.178-1.25 3.609 3.609 0 0 1 .209-1.269 2.8 2.8 0 0 1 .575-.949 2.462 2.462 0 0 1 .869-.595 2.853 2.853 0 0 1 1.091-.206 3.662 3.662 0 0 1 .983.118 1.963 1.963 0 0 1 .777.438v.96a.075.075 0 0 1-.039.069.047.047 0 0 1-.068-.015 2.342 2.342 0 0 0-.755-.591 1.993 1.993 0 0 0-.846-.179 1.8 1.8 0 0 0-.716.141 1.574 1.574 0 0 0-.568.415 1.964 1.964 0 0 0-.377.682 2.972 2.972 0 0 0-.137.949 2.615 2.615 0 0 0 .449 1.677 1.607 1.607 0 0 0 1.319.549 1.883 1.883 0 0 0 .9-.225 2.844 2.844 0 0 0 .777-.634z" transform="translate(-196.189 -335.826)"/>
            <path id="패스_34" data-name="패스 34" class="cls-4" d="M244.278 339.512a.059.059 0 0 1-.072.011.067.067 0 0 1-.034-.065v-.823a3.254 3.254 0 0 1 .773-.381 2.875 2.875 0 0 1 .919-.137 1.48 1.48 0 0 1 1.124.377 1.686 1.686 0 0 1 .354 1.185v2.921h-.842l-.045-.526h-.008a1.475 1.475 0 0 1-.534.446 1.569 1.569 0 0 1-.724.172 1.5 1.5 0 0 1-1.056-.335 1.235 1.235 0 0 1-.361-.953 1.377 1.377 0 0 1 .381-1 1.86 1.86 0 0 1 1.1-.5l1.151-.191v-.038a.914.914 0 0 0-.149-.583.681.681 0 0 0-.545-.179 1.893 1.893 0 0 0-.694.133 2.7 2.7 0 0 0-.738.466zm2.15 1.364v-.48l-.915.13a1.018 1.018 0 0 0-.591.259.723.723 0 0 0-.21.541.549.549 0 0 0 .171.442.717.717 0 0 0 .476.145.93.93 0 0 0 .4-.088 1.169 1.169 0 0 0 .34-.236 1.269 1.269 0 0 0 .24-.332.842.842 0 0 0 .09-.381z" transform="translate(-197.692 -336.288)"/>
            <path id="패스_35" data-name="패스 35" class="cls-4" d="M250.36 338.85h.008a1.68 1.68 0 0 1 .515-.45 1.4 1.4 0 0 1 .713-.183 1.359 1.359 0 0 1 1.086.427 1.952 1.952 0 0 1 .37 1.3v2.675h-.937V339.9a1.077 1.077 0 0 0-.2-.743.729.729 0 0 0-.556-.21.852.852 0 0 0-.388.091.951.951 0 0 0-.321.263 1.3 1.3 0 0 0-.217.419 1.821 1.821 0 0 0-.08.56v2.34h-.938v-4.314h.9z" transform="translate(-199.033 -336.311)"/>
            <path id="패스_36" data-name="패스 36" class="cls-4" d="M255.338 339.512a.061.061 0 0 1-.072.011.068.068 0 0 1-.034-.065v-.823a3.26 3.26 0 0 1 .774-.381 2.87 2.87 0 0 1 .919-.137 1.48 1.48 0 0 1 1.124.377 1.686 1.686 0 0 1 .354 1.185v2.921h-.838l-.046-.526h-.008a1.469 1.469 0 0 1-.534.446 1.567 1.567 0 0 1-.724.172 1.5 1.5 0 0 1-1.056-.335 1.236 1.236 0 0 1-.362-.953 1.38 1.38 0 0 1 .381-1 1.86 1.86 0 0 1 1.1-.5l1.151-.191v-.038a.914.914 0 0 0-.149-.583.68.68 0 0 0-.545-.179 1.893 1.893 0 0 0-.694.133 2.712 2.712 0 0 0-.741.466zm2.149 1.364v-.48l-.915.13a1.02 1.02 0 0 0-.591.259.726.726 0 0 0-.21.541.547.547 0 0 0 .171.442.715.715 0 0 0 .476.145.932.932 0 0 0 .4-.088 1.165 1.165 0 0 0 .339-.236 1.27 1.27 0 0 0 .24-.332.843.843 0 0 0 .091-.381z" transform="translate(-200.322 -336.288)"/>
            <path id="패스_37" data-name="패스 37" class="cls-4" d="M262.306 337.615a1.787 1.787 0 0 1 .614.1 1.209 1.209 0 0 1 .492.351h.008v-2.348h.945v6.311h-.9l-.038-.526h-.015a1.045 1.045 0 0 1-.461.438 1.469 1.469 0 0 1-.675.156 1.9 1.9 0 0 1-.7-.126 1.5 1.5 0 0 1-.556-.381 1.787 1.787 0 0 1-.37-.652 2.991 2.991 0 0 1-.133-.945 3.434 3.434 0 0 1 .149-1.067 2.205 2.205 0 0 1 .393-.739 1.534 1.534 0 0 1 .567-.431 1.7 1.7 0 0 1 .68-.141zm1.113 2.523v-.64a1.171 1.171 0 0 0-.271-.831.891.891 0 0 0-.682-.29.851.851 0 0 0-.742.4 2.1 2.1 0 0 0-.271 1.181 1.734 1.734 0 0 0 .258 1.04.8.8 0 0 0 .671.347.954.954 0 0 0 .4-.088.99.99 0 0 0 .331-.248 1.168 1.168 0 0 0 .221-.381 1.424 1.424 0 0 0 .085-.49z" transform="translate(-201.672 -335.717)"/>
            <path id="패스_38" data-name="패스 38" class="cls-4" d="M266.818 339.512a.061.061 0 0 1-.072.011.068.068 0 0 1-.034-.065v-.823a3.259 3.259 0 0 1 .774-.381 2.871 2.871 0 0 1 .918-.137 1.48 1.48 0 0 1 1.124.377 1.686 1.686 0 0 1 .354 1.185v2.921h-.838l-.046-.526h-.008a1.468 1.468 0 0 1-.534.446 1.567 1.567 0 0 1-.724.172 1.5 1.5 0 0 1-1.056-.335 1.236 1.236 0 0 1-.362-.953 1.38 1.38 0 0 1 .381-1 1.86 1.86 0 0 1 1.1-.5l1.151-.191v-.038a.913.913 0 0 0-.149-.583.68.68 0 0 0-.545-.179 1.893 1.893 0 0 0-.694.133 2.711 2.711 0 0 0-.74.466zm2.149 1.364v-.48l-.915.13a1.02 1.02 0 0 0-.591.259.726.726 0 0 0-.21.541.547.547 0 0 0 .171.442.715.715 0 0 0 .476.145.935.935 0 0 0 .4-.088 1.165 1.165 0 0 0 .339-.236 1.27 1.27 0 0 0 .24-.332.843.843 0 0 0 .091-.381z" transform="translate(-203.051 -336.288)"/>
            <path id="패스_39" data-name="패스 39" class="cls-4" d="m277.59 338.817 1.174 1.357h.015a1.613 1.613 0 0 0 .077-.629 1.794 1.794 0 0 0-.145-.606c-.026-.066-.008-.1.053-.1h.87a3.716 3.716 0 0 1 .027 1.113 3.33 3.33 0 0 1-.248.877l1.2 1.288H279.4l-.489-.595h-.015a2.011 2.011 0 0 1-.708.537 2.235 2.235 0 0 1-.968.21 3.135 3.135 0 0 1-.8-.091 2.052 2.052 0 0 1-.647-.3 1.762 1.762 0 0 1-.462-.518 1.46 1.46 0 0 1-.171-.739 1.609 1.609 0 0 1 .323-.964 5.124 5.124 0 0 1 .941-.941v-.016a4.285 4.285 0 0 1-.225-.263 2.18 2.18 0 0 1-.2-.3 1.7 1.7 0 0 1-.141-.339 1.336 1.336 0 0 1-.054-.385 1.234 1.234 0 0 1 .34-.907 1.327 1.327 0 0 1 .987-.343 1.619 1.619 0 0 1 1.063.309 1 1 0 0 1 .369.8 1.294 1.294 0 0 1-.091.492 1.942 1.942 0 0 1-.229.415 2.229 2.229 0 0 1-.3.343c-.112.1-.221.2-.329.282zm-.655.435q-.191.16-.344.309a2.006 2.006 0 0 0-.255.3 1.379 1.379 0 0 0-.16.324 1.208 1.208 0 0 0-.056.377.927.927 0 0 0 .075.377.882.882 0 0 0 .214.3 1.016 1.016 0 0 0 .32.2 1.091 1.091 0 0 0 .4.072 1.509 1.509 0 0 0 1.235-.617v-.015l-1.425-1.624zm.107-.991a2.722 2.722 0 0 0 .434-.427.831.831 0 0 0 .159-.526.443.443 0 0 0-.114-.328.554.554 0 0 0-.4-.114.431.431 0 0 0-.329.13.527.527 0 0 0-.121.373 1.209 1.209 0 0 0 .091.469 1.638 1.638 0 0 0 .267.423z" transform="translate(-205.149 -335.822)"/>
            <path id="패스_40" data-name="패스 40" class="cls-4" d="M287.982 342.225h-.015a2.352 2.352 0 0 1-1.071-.232 1.8 1.8 0 0 1-.705-.6 2.07 2.07 0 0 1-.286-.724 4.963 4.963 0 0 1-.08-.953v-3.461h.96v3.4a5.749 5.749 0 0 0 .046.793 1.2 1.2 0 0 0 .2.534 1.027 1.027 0 0 0 .381.316 1.287 1.287 0 0 0 .564.111 1.066 1.066 0 0 0 .93-.427 1.143 1.143 0 0 0 .206-.534 5.754 5.754 0 0 0 .046-.793v-3.4h.96v3.461a4.966 4.966 0 0 1-.08.953 1.984 1.984 0 0 1-.293.724 1.79 1.79 0 0 1-.705.6 2.316 2.316 0 0 1-1.058.232z" transform="translate(-207.69 -335.845)"/>
            <path id="패스_41" data-name="패스 41" class="cls-4" d="M296.017 337.582a2.32 2.32 0 0 0-.652-.453 1.824 1.824 0 0 0-.774-.164q-.937 0-.937.678a.688.688 0 0 0 .21.53 1.955 1.955 0 0 0 .576.347l.526.229a3.152 3.152 0 0 1 1.071.716 1.434 1.434 0 0 1 .377 1.006 1.811 1.811 0 0 1-.152.77 1.424 1.424 0 0 1-.431.541 1.859 1.859 0 0 1-.663.316 3.287 3.287 0 0 1-.85.1 3.2 3.2 0 0 1-.93-.13 2.028 2.028 0 0 1-.762-.427v-.991a.067.067 0 0 1 .038-.065.054.054 0 0 1 .069.011 3.243 3.243 0 0 0 .328.328 1.9 1.9 0 0 0 .358.244 1.8 1.8 0 0 0 .415.152 2.16 2.16 0 0 0 .492.053 1.25 1.25 0 0 0 .812-.21.8.8 0 0 0 .248-.644.755.755 0 0 0-.229-.56 2.194 2.194 0 0 0-.663-.415l-.526-.229a3.829 3.829 0 0 1-.522-.274 1.9 1.9 0 0 1-.412-.347 1.5 1.5 0 0 1-.271-.446 1.591 1.591 0 0 1-.1-.587 1.479 1.479 0 0 1 .137-.655 1.261 1.261 0 0 1 .389-.469 1.823 1.823 0 0 1 .6-.286 2.816 2.816 0 0 1 .77-.1 3.524 3.524 0 0 1 .389.023 2.887 2.887 0 0 1 .412.076 2.044 2.044 0 0 1 .4.149 1.679 1.679 0 0 1 .362.24v.884a.066.066 0 0 1-.038.065.054.054 0 0 1-.067-.006z" transform="translate(-209.307 -335.822)"/>
            <path id="패스_42" data-name="패스 42" class="cls-4" d="m300.957 336.267 1.967 5.892h-.96l-.518-1.616h-2l-.526 1.616h-.96l1.959-5.892zm-.518.861-.152.564-.656 2.089h1.616l-.656-2.089z" transform="translate(-210.575 -335.848)"/>
            <path id="패스_43" data-name="패스 43" class="cls-4" d="M310.618 337.582a2.313 2.313 0 0 0-.652-.453 1.824 1.824 0 0 0-.774-.164q-.938 0-.938.678a.688.688 0 0 0 .21.53 1.945 1.945 0 0 0 .575.347l.526.229a3.152 3.152 0 0 1 1.071.716 1.435 1.435 0 0 1 .377 1.006 1.8 1.8 0 0 1-.152.77 1.43 1.43 0 0 1-.431.541 1.865 1.865 0 0 1-.663.316 3.283 3.283 0 0 1-.85.1 3.2 3.2 0 0 1-.93-.13 2.034 2.034 0 0 1-.762-.427v-.991a.067.067 0 0 1 .038-.065.054.054 0 0 1 .069.011 3.327 3.327 0 0 0 .328.328 1.878 1.878 0 0 0 .359.244 1.776 1.776 0 0 0 .415.152 2.16 2.16 0 0 0 .492.053 1.25 1.25 0 0 0 .812-.21.8.8 0 0 0 .249-.644.755.755 0 0 0-.229-.56 2.188 2.188 0 0 0-.662-.415l-.527-.229a3.732 3.732 0 0 1-.521-.274 1.887 1.887 0 0 1-.412-.347 1.5 1.5 0 0 1-.271-.446 1.592 1.592 0 0 1-.1-.587 1.49 1.49 0 0 1 .137-.655 1.261 1.261 0 0 1 .389-.469 1.819 1.819 0 0 1 .6-.286 2.808 2.808 0 0 1 .77-.1 3.5 3.5 0 0 1 .388.023 2.886 2.886 0 0 1 .412.076 2.045 2.045 0 0 1 .4.149 1.679 1.679 0 0 1 .362.24v.884a.067.067 0 0 1-.037.065.054.054 0 0 1-.068-.006z" transform="translate(-212.779 -335.822)"/>
            <path id="패스_44" data-name="패스 44" class="cls-4" d="M314.24 342.132v2.317h-.94v-6.144h.938l.03.442h.008a1.563 1.563 0 0 1 .473-.393 1.392 1.392 0 0 1 .671-.149 1.578 1.578 0 0 1 1.319.56 2.515 2.515 0 0 1 .442 1.589 3.385 3.385 0 0 1-.118.918 2.237 2.237 0 0 1-.351.739 1.659 1.659 0 0 1-.574.5 1.684 1.684 0 0 1-.786.179 1.263 1.263 0 0 1-.643-.16 1.362 1.362 0 0 1-.447-.4zm-.014-1.3a1.135 1.135 0 0 0 .274.823 1.026 1.026 0 0 0 .77.282.67.67 0 0 0 .378-.114 1 1 0 0 0 .293-.316 1.78 1.78 0 0 0 .191-.488 2.735 2.735 0 0 0 .068-.629 2.9 2.9 0 0 0-.066-.667 1.146 1.146 0 0 0-.191-.438.705.705 0 0 0-.3-.24 1.1 1.1 0 0 0-.415-.072.76.76 0 0 0-.389.107 1.17 1.17 0 0 0-.321.278 1.31 1.31 0 0 0-.213.4 1.419 1.419 0 0 0-.075.454z" transform="translate(-214.222 -336.309)"/>
            <path id="패스_45" data-name="패스 45" class="cls-4" d="M322.428 341.363a.053.053 0 0 1 .068-.011.067.067 0 0 1 .039.065v.755a1.356 1.356 0 0 1-.663.4 3.281 3.281 0 0 1-.976.137 2.278 2.278 0 0 1-.843-.152 1.822 1.822 0 0 1-.659-.442 2.018 2.018 0 0 1-.426-.7 2.676 2.676 0 0 1-.154-.937 2.636 2.636 0 0 1 .154-.918 2.175 2.175 0 0 1 .422-.716 1.9 1.9 0 0 1 .648-.469 2.029 2.029 0 0 1 .835-.168 1.719 1.719 0 0 1 1.39.564 2.41 2.41 0 0 1 .476 1.6v.3h-3v.023a1.347 1.347 0 0 0 .373.945 1.246 1.246 0 0 0 .884.313 1.859 1.859 0 0 0 .774-.164 2.432 2.432 0 0 0 .658-.425zm-2.63-1.41h1.96v-.023a1.083 1.083 0 0 0-.237-.755.845.845 0 0 0-.656-.259.969.969 0 0 0-.682.274 1.341 1.341 0 0 0-.385.755z" transform="translate(-215.534 -336.309)"/>
            <path id="패스_46" data-name="패스 46" class="cls-4" d="M327.7 339.518a1.69 1.69 0 0 0-.53-.4 1.559 1.559 0 0 0-.667-.133 1.184 1.184 0 0 0-.534.114 1.038 1.038 0 0 0-.377.316 1.442 1.442 0 0 0-.225.476 2.234 2.234 0 0 0-.076.595 1.718 1.718 0 0 0 .3 1.075 1.116 1.116 0 0 0 .944.4 1.439 1.439 0 0 0 .66-.145 1.712 1.712 0 0 0 .53-.434.055.055 0 0 1 .069-.023.059.059 0 0 1 .038.061v.831a1.63 1.63 0 0 1-.605.374 2.364 2.364 0 0 1-.736.107 2.663 2.663 0 0 1-.883-.141 1.879 1.879 0 0 1-.694-.419 1.859 1.859 0 0 1-.449-.7 2.713 2.713 0 0 1-.161-.976 2.772 2.772 0 0 1 .152-.949 2.036 2.036 0 0 1 .434-.72 1.883 1.883 0 0 1 .686-.457 2.421 2.421 0 0 1 .9-.16 2.253 2.253 0 0 1 .713.107 1.9 1.9 0 0 1 .613.343v.823a.059.059 0 0 1-.037.061.056.056 0 0 1-.065-.026z" transform="translate(-216.84 -336.309)"/>
            <path id="패스_47" data-name="패스 47" class="cls-4" d="M329.415 336.6a.574.574 0 0 1 .168-.412.595.595 0 0 1 .659-.126.7.7 0 0 1 .194.13.615.615 0 0 1 .133.187.525.525 0 0 1 0 .442.614.614 0 0 1-.133.187.627.627 0 0 1-.194.126.6.6 0 0 1-.232.046.558.558 0 0 1-.236-.05.633.633 0 0 1-.187-.13.6.6 0 0 1-.126-.183.529.529 0 0 1-.046-.217zm1.074 1.181v4.319h-.953v-4.314z" transform="translate(-218.055 -335.788)"/>
            <path id="패스_48" data-name="패스 48" class="cls-4" d="M332.108 339.512a.061.061 0 0 1-.072.011.068.068 0 0 1-.034-.065v-.823a3.245 3.245 0 0 1 .774-.381 2.867 2.867 0 0 1 .918-.137 1.48 1.48 0 0 1 1.124.377 1.686 1.686 0 0 1 .354 1.185v2.921h-.838l-.046-.526h-.008a1.475 1.475 0 0 1-.534.446 1.569 1.569 0 0 1-.724.172 1.5 1.5 0 0 1-1.056-.335 1.236 1.236 0 0 1-.362-.953 1.377 1.377 0 0 1 .381-1 1.858 1.858 0 0 1 1.1-.5l1.151-.191v-.038a.909.909 0 0 0-.149-.583.679.679 0 0 0-.545-.179 1.9 1.9 0 0 0-.694.133 2.708 2.708 0 0 0-.74.466zm2.149 1.364v-.48l-.915.13a1.022 1.022 0 0 0-.591.259.725.725 0 0 0-.209.541.547.547 0 0 0 .172.442.715.715 0 0 0 .476.145.935.935 0 0 0 .4-.088 1.186 1.186 0 0 0 .339-.236 1.287 1.287 0 0 0 .24-.332.843.843 0 0 0 .089-.381z" transform="translate(-218.576 -336.288)"/>
            <path id="패스_49" data-name="패스 49" class="cls-4" d="M338.57 335.717v6.311h-.945v-6.311z" transform="translate(-220.007 -335.717)"/>
            <path id="패스_50" data-name="패스 50" class="cls-4" d="M339.894 336.6a.578.578 0 0 1 .168-.412.595.595 0 0 1 .659-.126.683.683 0 0 1 .194.13.6.6 0 0 1 .134.187.518.518 0 0 1 0 .442.6.6 0 0 1-.134.187.615.615 0 0 1-.194.126.6.6 0 0 1-.232.046.555.555 0 0 1-.236-.05.637.637 0 0 1-.187-.13.6.6 0 0 1-.125-.183.529.529 0 0 1-.047-.217zm1.075 1.181v4.319h-.953v-4.314z" transform="translate(-220.547 -335.788)"/>
            <path id="패스_51" data-name="패스 51" class="cls-4" d="M345.212 339.518a3.571 3.571 0 0 0-.675-.434 1.551 1.551 0 0 0-.667-.145.593.593 0 0 0-.4.111.486.486 0 0 0 .011.655 1.4 1.4 0 0 0 .354.187l.489.213c.158.072.307.145.45.221a1.815 1.815 0 0 1 .374.263 1.109 1.109 0 0 1 .251.343 1.075 1.075 0 0 1 .091.461 1.177 1.177 0 0 1-.13.553 1.255 1.255 0 0 1-.35.419 1.666 1.666 0 0 1-.526.267 2.2 2.2 0 0 1-.656.1 3.134 3.134 0 0 1-.8-.107 2.3 2.3 0 0 1-.77-.374v-.8a.059.059 0 0 1 .034-.061.075.075 0 0 1 .072.008 3.072 3.072 0 0 0 .713.419 1.886 1.886 0 0 0 .72.152.912.912 0 0 0 .545-.13.448.448 0 0 0 .172-.381.4.4 0 0 0-.13-.293 1.475 1.475 0 0 0-.42-.255l-.434-.191a4.47 4.47 0 0 1-.5-.248 1.565 1.565 0 0 1-.358-.282 1.11 1.11 0 0 1-.221-.347 1.226 1.226 0 0 1-.077-.457 1.02 1.02 0 0 1 .107-.465 1.113 1.113 0 0 1 .3-.374 1.417 1.417 0 0 1 .48-.248 2.145 2.145 0 0 1 .64-.088 2.551 2.551 0 0 1 .7.1 2.378 2.378 0 0 1 .713.358v.8a.06.06 0 0 1-.034.061.076.076 0 0 1-.068-.011z" transform="translate(-221.108 -336.309)"/>
            <path id="패스_52" data-name="패스 52" class="cls-4" d="M349.161 341.438a.068.068 0 0 1 .072-.015.059.059 0 0 1 .034.061v.671a1.157 1.157 0 0 1-.415.2 1.9 1.9 0 0 1-.5.065 1.13 1.13 0 0 1-.831-.278 1.159 1.159 0 0 1-.258-.827v-2.569h-.679v-.724h.679v-1.006h.929v1.006h1.052v.724h-1.052v2.477a.486.486 0 0 0 .085.32.331.331 0 0 0 .266.1.985.985 0 0 0 .343-.053 1.053 1.053 0 0 0 .275-.152z" transform="translate(-222.137 -336.026)"/>
        </g>
    </g>
</svg>
