<svg id="logo_ft" xmlns="http://www.w3.org/2000/svg" width="158.173" height="39.424">
    <defs>
        <style>
            .cls-2{fill:#333}.cls-3{fill:#f7f7f7}
        </style>
    </defs>
    <g id="그룹_9137" data-name="그룹 9137" transform="translate(-253 -717.942)" style="opacity:.3">
        <g id="그룹_5122" data-name="그룹 5122" transform="translate(253 717.942)">
            <path id="패스_53" data-name="패스 53" class="cls-2" d="M217.366 271.839s.379 6.995.1 10.684-.662 11.158-.662 12.953.755 7 .755 8.227-.661 5.294-.661 5.294 12.669.284 14.56.379 13.426.66 16.642.66 11.345-.849 11.345-.849.283-5.107.188-8.414-1.039-12.955-1.039-15.885v-13.237s-11.346.188-13.522.188-12.007-1.227-14.275-1.227-10.589.283-13.426 1.227" transform="translate(-216.799 -270.612)"/>
            <path id="패스_54" data-name="패스 54" class="cls-3" d="M229.64 272.987a39.551 39.551 0 0 0-9.807 1.359s.485 6.944.485 10.291c0 1.332-.679 5.837-.775 10.194-.061 2.662.507 5.022.386 7.282a26.215 26.215 0 0 1-.68 5.146s9.48.046 11.99.046c1.34 0 8.605.626 14.808.537 5.416-.08 10.434-.827 11.26-.681 0 0-.11-2.35.1-6.116s-.875-13.368-.875-15.145-.1-12.04-.1-12.04-5.413.188-11.165.292c-3.006.054-9.814-1.2-15.63-1.164" transform="translate(-216.852 -270.664)"/>
            <path id="패스_55" data-name="패스 55" class="cls-2" d="m236.521 288.095-7.552-.419s-2.2 4.21-2.2 5.411a33.646 33.646 0 0 1-1.7 8.319c-.851 1.8-.957 7.981-.957 7.981l15.468.7-1.953-7.225.092-9.6-1.282-5.507" transform="translate(-216.958 -270.982)"/>
            <path id="패스_56" data-name="패스 56" class="cls-3" d="m235.848 289.561-6.5-.2s-1.65 2.924-1.65 3.947-.772 6.362-1.5 7.9-.9 6.595-.9 6.595l12.793.4-1.349-5.7v-8.9l-.971-3.967" transform="translate(-216.984 -271.019)"/>
            <path id="패스_57" data-name="패스 57" class="cls-2" d="m219.761 284.74-.1-2.972a36.266 36.266 0 0 1 4.484 1.139 31.7 31.7 0 0 0 3.436.969l5.287 2.641a105.732 105.732 0 0 1 10.571-2.29c4.052-.526 7.049-.615 7.049-.615l4.932-1.411 1.656.4.068 4.325.325 4.23s-6.453.646-7.774.382-7.929-2.817-7.929-2.817l-5.9-1.587h-2.818l-3.524.086h-4.234l-5.729.062z" transform="translate(-216.859 -270.855)"/>
            <path id="패스_58" data-name="패스 58" class="cls-2" d="m228.622 288.17 1.94-4.325 5.473-.088.795 5.206z" transform="translate(-217.056 -270.898)"/>
            <path id="패스_59" data-name="패스 59" class="cls-3" d="m230.106 287.252 1.2-2.848 4.048-.1.448 3.047z" transform="translate(-217.088 -270.91)"/>
            <path id="패스_60" data-name="패스 60" class="cls-2" d="m224.8 287.481 15.2.3.239 2.533-16.044-.422z" transform="translate(-216.96 -270.978)"/>
            <path id="패스_61" data-name="패스 61" class="cls-3" d="m225.236 288.1 14.352.212.143 1.492-14.816-.354z" transform="translate(-216.975 -270.992)"/>
            <path id="패스_62" data-name="패스 62" class="cls-2" d="m230.586 281.018 5.5-.1a24.514 24.514 0 0 1 1.9 4.4s-2.6.8-10 .1z" transform="translate(-217.042 -270.836)"/>
            <path id="패스_63" data-name="패스 63" class="cls-3" d="m231.274 281.669 4.266-.077a17.692 17.692 0 0 1 1.273 3.093 26.472 26.472 0 0 1-7.25-.064z" transform="translate(-217.076 -270.85)"/>
            <path id="사각형_1686" data-name="사각형 1686" class="cls-2" transform="translate(14.14 22.758)" d="M0 0h2.107v3.126H0z"/>
            <path id="사각형_1687" data-name="사각형 1687" class="cls-2" transform="translate(13.491 31.613)" d="M0 0h3.313v5.796H0z"/>
        </g>
        <path id="패스_64" data-name="패스 64" class="cls-2" d="M299.642 308.867h-1.967v-8.6h-2.7V298.7h7.376v1.572h-2.706z" transform="translate(34.505 446.72)"/>
        <path id="패스_65" data-name="패스 65" class="cls-2" d="M304.461 308.92h-1.7v-7.526h1.539v1.8a3.207 3.207 0 0 1 .9-1.534 1.814 1.814 0 0 1 1.178-.485c.056 0 .13 0 .223.007V303a1.74 1.74 0 0 0-1.717.827 3.526 3.526 0 0 0-.421 1.6z" transform="translate(34.336 446.667)"/>
        <path id="패스_66" data-name="패스 66" class="cls-2" d="M314.362 308.922h-1.618a6.179 6.179 0 0 1-.258-1.519 2.523 2.523 0 0 1-2.549 1.676 2.489 2.489 0 0 1-1.807-.658 2.217 2.217 0 0 1-.683-1.66q0-2.59 4.555-2.592c.117 0 .278 0 .484.007v-.564c0-.782-.533-1.171-1.594-1.171-1.037 0-1.622.389-1.761 1.171l-1.444-.216a2.182 2.182 0 0 1 .968-1.547 4.193 4.193 0 0 1 2.459-.608 5.782 5.782 0 0 1 1.422.145 2.179 2.179 0 0 1 .933.493 1.879 1.879 0 0 1 .524.752 4.543 4.543 0 0 1 .145 1.375v3.4a5.5 5.5 0 0 0 .224 1.519m-1.876-3.828q-3.3 0-3.295 1.571a1.087 1.087 0 0 0 .333.8 1.356 1.356 0 0 0 1 .333 1.774 1.774 0 0 0 1.465-.615 2.164 2.164 0 0 0 .5-1.4z" transform="translate(34.234 446.665)"/>
        <path id="패스_67" data-name="패스 67" class="cls-2" d="m321.817 301.4-2.554 7.526h-1.409l-2.616-7.526h1.772l1.76 5.1 1.713-5.1z" transform="translate(34.065 446.662)"/>
        <path id="패스_68" data-name="패스 68" class="cls-2" d="m327.743 306.523 1.535.209a3.2 3.2 0 0 1-1.164 1.684 3.464 3.464 0 0 1-2.169.662 3.232 3.232 0 0 1-2.516-1.051 4.077 4.077 0 0 1-.955-2.846 4.181 4.181 0 0 1 .963-2.824 3.257 3.257 0 0 1 2.606-1.117 3 3 0 0 1 2.49 1.1 4.4 4.4 0 0 1 .879 2.831l-.008.194h-5.164a4.2 4.2 0 0 0 .147 1.231 1.783 1.783 0 0 0 3.358-.075m-.1-2.251a1.915 1.915 0 0 0-.49-1.327 1.648 1.648 0 0 0-2.358-.032 2.177 2.177 0 0 0-.554 1.359z" transform="translate(33.908 446.665)"/>
        <path id="사각형_1688" data-name="사각형 1688" class="cls-2" transform="translate(364.863 745.417)" d="M0 0h1.699v10.171H0z"/>
        <path id="패스_69" data-name="패스 69" class="cls-2" d="M341.394 308.922h-1.617a6.183 6.183 0 0 1-.259-1.519 2.521 2.521 0 0 1-2.549 1.676 2.483 2.483 0 0 1-1.8-.658 2.211 2.211 0 0 1-.684-1.66q0-2.59 4.552-2.592c.121 0 .282 0 .486.007v-.564c0-.782-.53-1.171-1.6-1.171q-1.55 0-1.759 1.171l-1.446-.216a2.2 2.2 0 0 1 .97-1.547 4.19 4.19 0 0 1 2.458-.608 5.747 5.747 0 0 1 1.421.145 2.167 2.167 0 0 1 .934.493 1.879 1.879 0 0 1 .524.752 4.531 4.531 0 0 1 .146 1.375v3.4a5.5 5.5 0 0 0 .223 1.519m-1.876-3.828q-3.294 0-3.295 1.571a1.087 1.087 0 0 0 .333.8 1.356 1.356 0 0 0 1 .333 1.771 1.771 0 0 0 1.465-.615 2.181 2.181 0 0 0 .5-1.4z" transform="translate(33.648 446.665)"/>
        <path id="패스_70" data-name="패스 70" class="cls-2" d="M345.1 308.92h-1.7v-7.526h1.532v1.8a3.183 3.183 0 0 1 .9-1.534 1.82 1.82 0 0 1 1.179-.485c.055 0 .128 0 .221.007V303a1.736 1.736 0 0 0-1.715.827 3.514 3.514 0 0 0-.422 1.6z" transform="translate(33.454 446.667)"/>
        <path id="패스_71" data-name="패스 71" class="cls-2" d="M352.354 307.552v1.327a6.021 6.021 0 0 1-1.178.164 2.371 2.371 0 0 1-1.176-.273 1.648 1.648 0 0 1-.721-.743 3.5 3.5 0 0 1-.228-1.458v-3.9h-.938v-1.32h1.036l.156-1.958 1.394-.126v2.085h1.511v1.32h-1.51v3.673a1 1 0 0 0 1.229 1.224c.134 0 .275-.007.425-.017" transform="translate(33.352 446.708)"/>
        <path id="패스_72" data-name="패스 72" class="cls-2" d="M355.6 300.463h-1.7V298.7h1.7zm0 8.4h-1.7v-7.523h1.7z" transform="translate(33.226 446.72)"/>
        <path id="패스_73" data-name="패스 73" class="cls-2" d="M359.609 308.863h-1.64v-6.207h-1.118v-1.319h1.118v-.372a2.762 2.762 0 0 1 .534-1.773 2.7 2.7 0 0 1 2.167-.672c.16 0 .363.007.6.015v1.336a5.462 5.462 0 0 0-.438-.023 1.678 1.678 0 0 0-.88.167.633.633 0 0 0-.3.394 5.63 5.63 0 0 0-.047.927h1.666v1.319h-1.666z" transform="translate(33.162 446.725)"/>
        <path id="패스_74" data-name="패스 74" class="cls-2" d="m367.29 306.523 1.535.209a3.2 3.2 0 0 1-1.164 1.684 3.456 3.456 0 0 1-2.167.662 3.235 3.235 0 0 1-2.518-1.051 4.07 4.07 0 0 1-.956-2.846 4.172 4.172 0 0 1 .964-2.824 3.261 3.261 0 0 1 2.606-1.117 3.006 3.006 0 0 1 2.491 1.1 4.4 4.4 0 0 1 .877 2.831l-.006.194h-5.163a4.2 4.2 0 0 0 .147 1.231 1.642 1.642 0 0 0 .576.8 1.818 1.818 0 0 0 2.779-.879m-.1-2.251a1.9 1.9 0 0 0-.49-1.327 1.651 1.651 0 0 0-2.36-.032 2.158 2.158 0 0 0-.55 1.359z" transform="translate(33.05 446.665)"/>
        <path id="패스_75" data-name="패스 75" class="cls-2" d="M376.2 308.925h-1.935l-1.6-2.743-1.746 2.743h-1.457l2.5-3.875-2.162-3.65h1.943l1.236 2.214 1.408-2.214h1.423l-2.122 3.264z" transform="translate(32.888 446.662)"/>
        <g id="그룹_4214" data-name="그룹 4214" transform="translate(300.529 720.065)">
            <path id="패스_76" data-name="패스 76" class="cls-2" d="M272.985 289.307a4.519 4.519 0 0 1-2.05-.522v8.051h-5.554v-23.483h6.187c5.181 0 9.654 1.789 9.654 7.716a8.288 8.288 0 0 1-8.237 8.238zm-1.231-11.294h-.819v6.3a5.636 5.636 0 0 0 1.491.447c2.347 0 3.242-1.565 3.242-3.727.001-2.533-1.751-3.02-3.913-3.02z" transform="translate(-265.382 -272.794)"/>
            <path id="패스_77" data-name="패스 77" class="cls-2" d="M294.939 296.836v-9.8h-5.294v9.8h-5.554v-23.483h5.554v8.871h5.294v-8.871h5.553v23.483z" transform="translate(-265.788 -272.794)"/>
            <path id="패스_78" data-name="패스 78" class="cls-2" d="m316 296.836-1.194-4.845h-4.7l-1.193 4.845h-5.778l6.561-23.483h5.479l6.6 23.483zm-3.541-16.364-1.752 7.157h3.5z" transform="translate(-266.201 -272.794)"/>
            <path id="패스_79" data-name="패스 79" class="cls-2" d="m335.965 296.836-6-8.2v8.2h-5.554v-23.483h6.15c5.145 0 9.692 1.864 9.692 7.716a7.363 7.363 0 0 1-4.547 6.9l4.92 6.374v2.5zm-4.548-18.823h-1.454v6.411a5.961 5.961 0 0 0 1.379.261c2.125 0 3.28-1.641 3.28-3.653 0-2.2-1.043-3.019-3.206-3.019z" transform="translate(-266.663 -272.794)"/>
            <path id="패스_80" data-name="패스 80" class="cls-2" d="M351.832 297.382c-6.822 0-9.1-7.119-9.1-12.3s2.274-12.3 9.1-12.3 9.1 7.119 9.1 12.3-2.278 12.3-9.1 12.3zm0-19.829c-3.316 0-3.541 4.323-3.541 7.529 0 3.243.224 7.529 3.541 7.529s3.541-4.36 3.541-7.529c.001-3.206-.222-7.529-3.541-7.529z" transform="translate(-267.061 -272.782)"/>
            <path id="패스_81" data-name="패스 81" class="cls-2" d="M370.212 297.382a11.151 11.151 0 0 1-6.411-2.646l2.46-3.876c.968.708 2.758 1.827 3.988 1.827a2.25 2.25 0 0 0 2.423-2.349c0-2.87-9.319-4.1-9.319-10.884 0-4.213 3.318-6.672 7.343-6.672a9.517 9.517 0 0 1 7.083 3.54l-3.094 2.759a5.508 5.508 0 0 0-3.8-1.752 2.061 2.061 0 0 0-2.085 1.971c0 3.579 9.355 3.69 9.355 11.071-.003 4.439-3.805 7.011-7.943 7.011z" transform="translate(-267.508 -272.782)"/>
        </g>
    </g>
</svg>
