<svg id="logo_menu_" data-name="logo_menu" xmlns="http://www.w3.org/2000/svg" width="92" height="18">
    <defs>
        <style>
            .cls-1{fill:#fff}
        </style>
    </defs>
    <g id="그룹_5276" data-name="그룹 5276" transform="translate(0 .25)">
        <path id="패스_10" data-name="패스 10" class="cls-1" d="m428.04 346.919-.47-.435-1.18 1.1.787-2.691-1.049.175-.749-1.329-.862 1.4-.824-.351.562 2.622-1.01-1.084-.377.56-1.311-.246.187 1.5-.466.263 2.1 1.958-.244.647 1.875-.35v2.306h.709v-2.306l1.912.245-.188-.734 2.211-1.714-.545-.542.169-1.171z" transform="translate(-339.477 -340.981)"/>
        <g id="그룹_4209" data-name="그룹 4209" transform="translate(28.709 6.28)">
            <path id="패스_11" data-name="패스 11" class="cls-1" d="M273.79 362.674a4.279 4.279 0 0 1-2.42.693 4.425 4.425 0 0 1-1.869-.4 4.613 4.613 0 0 1-1.551-1.151 4.736 4.736 0 0 1-.87-1.458 5.094 5.094 0 0 1-.294-1.728 4.6 4.6 0 0 1 .353-1.786 4.743 4.743 0 0 1 1.057-1.54 4.654 4.654 0 0 1 1.445-.975 4.492 4.492 0 0 1 1.739-.341 4.36 4.36 0 0 1 2.456.705 4.95 4.95 0 0 1 1.739 2.162h-1.951a2.781 2.781 0 0 0-1-.882 2.889 2.889 0 0 0-1.257-.259 2.723 2.723 0 0 0-1.058.2 2.474 2.474 0 0 0-.882.611 2.944 2.944 0 0 0-.658.987 3.014 3.014 0 0 0-.211 1.128 3.369 3.369 0 0 0 .2 1.175 2.685 2.685 0 0 0 .6.952 2.873 2.873 0 0 0 .929.646 2.581 2.581 0 0 0 1.081.235 2.776 2.776 0 0 0 1.234-.258 2.689 2.689 0 0 0 .952-.822h2.033a5.216 5.216 0 0 1-1.797 2.106z" transform="translate(-266.786 -353.99)"/>
            <path id="패스_12" data-name="패스 12" class="cls-1" d="M296.919 363.539H295.1l3.525-9.036h1.54l3.526 9.036h-1.869l-.951-2.491h-2.985zm2.468-6.5-.87 2.327h1.727z" transform="translate(-285.368 -354.327)"/>
            <path id="패스_13" data-name="패스 13" class="cls-1" d="M323.478 363.539V354.5h1.645l3.772 5.806V354.5h1.7v9.036h-1.563l-3.831-5.957v5.957z" transform="translate(-303.995 -354.327)"/>
            <path id="패스_14" data-name="패스 14" class="cls-1" d="M349.442 363.539h-1.821l3.525-9.036h1.539l3.525 9.036h-1.868l-.952-2.491h-2.985zm2.468-6.5-.869 2.327h1.727z" transform="translate(-319.841 -354.327)"/>
            <path id="패스_15" data-name="패스 15" class="cls-1" d="M375.418 363.539V354.5h3a4.347 4.347 0 0 1 4.536 4.536 4.666 4.666 0 0 1-.481 2.115 4.3 4.3 0 0 1-1.34 1.587 4.169 4.169 0 0 1-1.469.646 6.976 6.976 0 0 1-1.6.153zm2.95-1.621a2.815 2.815 0 0 0 2.1-.764 2.849 2.849 0 0 0 .74-2.092 2.811 2.811 0 0 0-.787-2.151 3.163 3.163 0 0 0-2.291-.763h-1.03v5.769z" transform="translate(-338.085 -354.327)"/>
            <path id="패스_16" data-name="패스 16" class="cls-1" d="M401.962 363.539h-1.821l3.525-9.036h1.539l3.526 9.036h-1.868l-.952-2.491h-2.985zm2.469-6.5-.87 2.327h1.727z" transform="translate(-354.312 -354.327)"/>
        </g>
        <g id="그룹_4210" data-name="그룹 4210" transform="translate(0 6.027)">
            <path id="패스_17" data-name="패스 17" class="cls-1" d="M183.249 353.977h.453l.173.021v4.055a1.764 1.764 0 0 0 .5.021h2.156l.086-.021v-4.076h.625v9.661h-.625v-4.9l-2.717-.022-.022 4.938h-.625z" transform="translate(-183.249 -353.729)"/>
            <path id="패스_18" data-name="패스 18" class="cls-1" d="M200.727 354.792h.583v.625a4.051 4.051 0 0 0-3.752 2.5 2.66 2.66 0 0 0-.151.474l-.043.151-.021.043a1.342 1.342 0 0 0-.043.366h2.609v.647h-2.631a2.054 2.054 0 0 0 .086.819l.022.151.022.043a4.041 4.041 0 0 0 3.9 2.954v.625a4.6 4.6 0 0 1-3.257-1.294 4.527 4.527 0 0 1-1.423-3.192 4.672 4.672 0 0 1 1.078-3.256 4.858 4.858 0 0 1 3.021-1.656z" transform="translate(-192.025 -354.264)"/>
            <path id="패스_19" data-name="패스 19" class="cls-1" d="M212.366 353.9h.323a.75.75 0 0 1 .3.022v9.036a1.76 1.76 0 0 0 .5.021h1.941v.625h-3.062z" transform="translate(-202.36 -353.674)"/>
            <path id="패스_20" data-name="패스 20" class="cls-1" d="M224.131 353.9h.324a.751.751 0 0 1 .3.022v9.036a1.762 1.762 0 0 0 .5.021h1.941v.625h-3.062z" transform="translate(-210.081 -353.674)"/>
            <path id="패스_21" data-name="패스 21" class="cls-1" d="M240.182 353.288a5.278 5.278 0 0 1 3.709 1.013 5.147 5.147 0 0 1 1.962 3.407 5.087 5.087 0 0 1-8.022 4.572 4.807 4.807 0 0 1-1.876-5.37 5.054 5.054 0 0 1 4.227-3.622zm.215.625a4.5 4.5 0 0 0-3.278 2.006 4.054 4.054 0 0 0-.475 3.731 4.4 4.4 0 0 0 2.588 2.631 4.342 4.342 0 1 0 1.164-8.368z" transform="translate(-217.721 -353.256)"/>
        </g>
        <g id="그룹_4211" data-name="그룹 4211" transform="translate(.023)">
            <path id="패스_22" data-name="패스 22" class="cls-1" d="M183.969 338.924h-.653v-2.657h.653a1.612 1.612 0 0 1 1.093.321 1.26 1.26 0 0 1 .364.995 1.437 1.437 0 0 1-.117.6 1.152 1.152 0 0 1-.316.418 1.294 1.294 0 0 1-.464.241 1.987 1.987 0 0 1-.56.082zm.058-2.3h-.282v1.942h.268a.868.868 0 0 0 .952-.976 1 1 0 0 0-.234-.73.953.953 0 0 0-.704-.236z" transform="translate(-183.316 -336.078)"/>
            <path id="패스_23" data-name="패스 23" class="cls-1" d="M191.735 339.63a.024.024 0 0 1 .031-.005.03.03 0 0 1 .017.029v.34a.613.613 0 0 1-.3.182 1.479 1.479 0 0 1-.44.062 1.025 1.025 0 0 1-.38-.069.823.823 0 0 1-.3-.2.916.916 0 0 1-.192-.316 1.215 1.215 0 0 1-.069-.423 1.2 1.2 0 0 1 .069-.414.98.98 0 0 1 .191-.323.858.858 0 0 1 .292-.211.915.915 0 0 1 .376-.076.775.775 0 0 1 .627.254 1.087 1.087 0 0 1 .215.722v.137h-1.351v.01a.607.607 0 0 0 .168.426.562.562 0 0 0 .4.141.838.838 0 0 0 .349-.074 1.1 1.1 0 0 0 .297-.192zm-1.186-.636h.883v-.01a.488.488 0 0 0-.107-.34.381.381 0 0 0-.3-.117.437.437 0 0 0-.308.124.6.6 0 0 0-.174.34z" transform="translate(-187.773 -337.351)"/>
            <path id="패스_24" data-name="패스 24" class="cls-1" d="M197.059 338.8a1.587 1.587 0 0 0-.3-.2.7.7 0 0 0-.3-.065.267.267 0 0 0-.182.05.219.219 0 0 0 .005.3.618.618 0 0 0 .16.084l.22.1c.071.032.139.065.2.1a.809.809 0 0 1 .168.119.5.5 0 0 1 .113.155.485.485 0 0 1 .041.208.531.531 0 0 1-.058.249.57.57 0 0 1-.158.189.746.746 0 0 1-.237.12.989.989 0 0 1-.3.043 1.411 1.411 0 0 1-.361-.048 1.04 1.04 0 0 1-.347-.168v-.361a.027.027 0 0 1 .015-.027.034.034 0 0 1 .033 0 1.377 1.377 0 0 0 .321.189.851.851 0 0 0 .325.069.411.411 0 0 0 .246-.058.2.2 0 0 0 .077-.172.179.179 0 0 0-.058-.132.672.672 0 0 0-.189-.115l-.2-.086a2.042 2.042 0 0 1-.223-.112.7.7 0 0 1-.161-.127.5.5 0 0 1-.1-.156.553.553 0 0 1-.034-.206.464.464 0 0 1 .048-.21.5.5 0 0 1 .137-.168.64.64 0 0 1 .217-.112.968.968 0 0 1 .289-.04 1.149 1.149 0 0 1 .314.045 1.072 1.072 0 0 1 .321.162v.361a.027.027 0 0 1-.015.028.034.034 0 0 1-.027-.008z" transform="translate(-191.461 -337.351)"/>
            <path id="패스_25" data-name="패스 25" class="cls-1" d="M201.218 339.01a.031.031 0 0 1 .033-.007.027.027 0 0 1 .015.027v.3a.521.521 0 0 1-.187.091.856.856 0 0 1-.225.029.509.509 0 0 1-.375-.125.523.523 0 0 1-.117-.373V337.8h-.306v-.326h.306v-.454h.419v.454h.474v.326h-.474v1.117a.223.223 0 0 0 .038.144.15.15 0 0 0 .12.045.445.445 0 0 0 .155-.024.467.467 0 0 0 .124-.072z" transform="translate(-194.303 -336.57)"/>
            <path id="패스_26" data-name="패스 26" class="cls-1" d="M204.036 336.282a.259.259 0 0 1 .076-.186.268.268 0 0 1 .3-.057.315.315 0 0 1 .088.058.282.282 0 0 1 .06.084.233.233 0 0 1 0 .2.278.278 0 0 1-.148.141.273.273 0 0 1-.1.021.252.252 0 0 1-.107-.022.289.289 0 0 1-.084-.058.271.271 0 0 1-.057-.082.238.238 0 0 1-.028-.099zm.485.533v1.945h-.43v-1.945z" transform="translate(-196.915 -335.914)"/>
            <path id="패스_27" data-name="패스 27" class="cls-1" d="M207.152 338.5a.753.753 0 0 1 .232-.2.629.629 0 0 1 .321-.082.614.614 0 0 1 .49.192.88.88 0 0 1 .167.588v1.202h-.423v-1.227a.487.487 0 0 0-.089-.335.329.329 0 0 0-.251-.095.387.387 0 0 0-.175.041.431.431 0 0 0-.144.119.589.589 0 0 0-.1.189.821.821 0 0 0-.036.253v1.055h-.423v-1.945h.406z" transform="translate(-198.681 -337.358)"/>
            <path id="패스_28" data-name="패스 28" class="cls-1" d="M212.373 338.746a.027.027 0 0 1-.033.005.031.031 0 0 1-.015-.029v-.371a1.464 1.464 0 0 1 .349-.172 1.3 1.3 0 0 1 .414-.062.667.667 0 0 1 .507.17.76.76 0 0 1 .16.534v1.316h-.378l-.021-.237a.665.665 0 0 1-.241.2.707.707 0 0 1-.326.077.677.677 0 0 1-.476-.151.556.556 0 0 1-.163-.43.621.621 0 0 1 .172-.452.838.838 0 0 1 .495-.225l.519-.086v-.017a.412.412 0 0 0-.067-.263.307.307 0 0 0-.246-.081.854.854 0 0 0-.313.06 1.216 1.216 0 0 0-.337.214zm.969.615v-.216l-.412.058a.459.459 0 0 0-.266.117.326.326 0 0 0-.094.244.247.247 0 0 0 .077.2.322.322 0 0 0 .215.065.422.422 0 0 0 .179-.04.526.526 0 0 0 .153-.107.572.572 0 0 0 .108-.149.38.38 0 0 0 .04-.172z" transform="translate(-202.238 -337.292)"/>
            <path id="패스_29" data-name="패스 29" class="cls-1" d="M218.447 339.01a.032.032 0 0 1 .033-.007.027.027 0 0 1 .015.027v.3a.524.524 0 0 1-.187.091.857.857 0 0 1-.225.029.508.508 0 0 1-.374-.125.521.521 0 0 1-.117-.373V337.8h-.306v-.326h.306v-.454h.419v.454h.474v.326h-.474v1.117a.221.221 0 0 0 .038.144.149.149 0 0 0 .12.045.446.446 0 0 0 .155-.024.47.47 0 0 0 .123-.072z" transform="translate(-205.612 -336.57)"/>
            <path id="패스_30" data-name="패스 30" class="cls-1" d="M221.266 336.282a.259.259 0 0 1 .076-.186.268.268 0 0 1 .3-.057.315.315 0 0 1 .088.058.283.283 0 0 1 .06.084.234.234 0 0 1 0 .2.278.278 0 0 1-.148.141.273.273 0 0 1-.1.021.252.252 0 0 1-.107-.022.289.289 0 0 1-.084-.058.272.272 0 0 1-.057-.082.238.238 0 0 1-.028-.099zm.485.533v1.945h-.43v-1.945z" transform="translate(-208.224 -335.914)"/>
            <path id="패스_31" data-name="패스 31" class="cls-1" d="M224.432 340.228a.93.93 0 0 1-.406-.082.8.8 0 0 1-.284-.222.928.928 0 0 1-.165-.321 1.367 1.367 0 0 1-.053-.385 1.306 1.306 0 0 1 .058-.4.962.962 0 0 1 .172-.321.782.782 0 0 1 .284-.215 1.04 1.04 0 0 1 .787 0 .779.779 0 0 1 .284.215.95.95 0 0 1 .172.321 1.376 1.376 0 0 1 0 .782.937.937 0 0 1-.167.321.8.8 0 0 1-.282.222.917.917 0 0 1-.4.085zm0-.34a.406.406 0 0 0 .351-.16.875.875 0 0 0 .117-.51.891.891 0 0 0-.115-.515.47.47 0 0 0-.7 0 .882.882 0 0 0-.117.515.866.866 0 0 0 .119.51.407.407 0 0 0 .345.16z" transform="translate(-209.707 -337.351)"/>
            <path id="패스_32" data-name="패스 32" class="cls-1" d="M230.152 338.5a.751.751 0 0 1 .232-.2.631.631 0 0 1 .321-.082.613.613 0 0 1 .49.192.88.88 0 0 1 .167.588v1.202h-.423v-1.227a.486.486 0 0 0-.09-.335.328.328 0 0 0-.251-.095.384.384 0 0 0-.175.041.429.429 0 0 0-.145.119.6.6 0 0 0-.1.189.822.822 0 0 0-.036.253v1.055h-.423v-1.945h.405z" transform="translate(-213.777 -337.358)"/>
            <path id="패스_33" data-name="패스 33" class="cls-1" d="M239.46 338.143a.021.021 0 0 1 .031-.007.033.033 0 0 1 .018.031v.436a1.124 1.124 0 0 1-.393.223 1.515 1.515 0 0 1-.463.069 1.273 1.273 0 0 1-.5-.094 1.034 1.034 0 0 1-.377-.272 1.2 1.2 0 0 1-.235-.428 1.84 1.84 0 0 1-.08-.564 1.627 1.627 0 0 1 .094-.572 1.262 1.262 0 0 1 .259-.428 1.111 1.111 0 0 1 .392-.268 1.286 1.286 0 0 1 .492-.093 1.65 1.65 0 0 1 .443.053.885.885 0 0 1 .351.2v.433a.034.034 0 0 1-.018.031.021.021 0 0 1-.031-.007 1.056 1.056 0 0 0-.341-.266.9.9 0 0 0-.381-.081.813.813 0 0 0-.323.064.71.71 0 0 0-.256.187.886.886 0 0 0-.17.308 1.34 1.34 0 0 0-.062.428 1.179 1.179 0 0 0 .2.756.725.725 0 0 0 .595.247.849.849 0 0 0 .406-.1 1.283 1.283 0 0 0 .349-.286z" transform="translate(-218.85 -336.019)"/>
            <path id="패스_34" data-name="패스 34" class="cls-1" d="M244 338.746a.027.027 0 0 1-.032.005.03.03 0 0 1-.015-.029v-.371a1.468 1.468 0 0 1 .348-.172 1.3 1.3 0 0 1 .414-.062.667.667 0 0 1 .507.17.76.76 0 0 1 .16.534v1.316h-.378l-.02-.237a.665.665 0 0 1-.241.2.708.708 0 0 1-.326.077.678.678 0 0 1-.476-.151.557.557 0 0 1-.163-.43.621.621 0 0 1 .172-.452.839.839 0 0 1 .495-.225l.519-.086v-.017a.412.412 0 0 0-.067-.263.307.307 0 0 0-.246-.081.853.853 0 0 0-.313.06 1.217 1.217 0 0 0-.338.214zm.969.615v-.216l-.412.058a.459.459 0 0 0-.266.117.326.326 0 0 0-.095.244.248.248 0 0 0 .077.2.324.324 0 0 0 .215.065.419.419 0 0 0 .179-.04.527.527 0 0 0 .153-.107.572.572 0 0 0 .108-.149.38.38 0 0 0 .044-.172z" transform="translate(-222.998 -337.292)"/>
            <path id="패스_35" data-name="패스 35" class="cls-1" d="M249.841 338.5a.757.757 0 0 1 .232-.2.631.631 0 0 1 .321-.082.613.613 0 0 1 .49.192.88.88 0 0 1 .167.588v1.202h-.422v-1.227a.486.486 0 0 0-.09-.335.328.328 0 0 0-.251-.095.384.384 0 0 0-.175.041.429.429 0 0 0-.145.119.588.588 0 0 0-.1.189.822.822 0 0 0-.036.253v1.055h-.423v-1.945h.406z" transform="translate(-226.699 -337.358)"/>
            <path id="패스_36" data-name="패스 36" class="cls-1" d="M255.062 338.746a.027.027 0 0 1-.033.005.031.031 0 0 1-.015-.029v-.371a1.47 1.47 0 0 1 .349-.172 1.3 1.3 0 0 1 .414-.062.667.667 0 0 1 .507.17.76.76 0 0 1 .16.534v1.316h-.378l-.021-.237a.663.663 0 0 1-.241.2.707.707 0 0 1-.326.077.677.677 0 0 1-.476-.151.557.557 0 0 1-.163-.43.623.623 0 0 1 .172-.452.838.838 0 0 1 .495-.225l.519-.086v-.017a.412.412 0 0 0-.067-.263.307.307 0 0 0-.246-.081.854.854 0 0 0-.313.06 1.221 1.221 0 0 0-.337.214zm.969.615v-.216l-.412.058a.46.46 0 0 0-.266.117.327.327 0 0 0-.094.244.247.247 0 0 0 .077.2.322.322 0 0 0 .215.065.42.42 0 0 0 .179-.04.526.526 0 0 0 .153-.107.572.572 0 0 0 .108-.149.38.38 0 0 0 .04-.172z" transform="translate(-230.256 -337.292)"/>
            <path id="패스_37" data-name="패스 37" class="cls-1" d="M261.323 336.573a.8.8 0 0 1 .277.045.545.545 0 0 1 .222.158v-1.058h.426v2.846h-.406l-.017-.237h-.007a.471.471 0 0 1-.208.2.662.662 0 0 1-.3.07.858.858 0 0 1-.316-.057.676.676 0 0 1-.251-.172.806.806 0 0 1-.167-.294 1.349 1.349 0 0 1-.06-.426 1.549 1.549 0 0 1 .067-.481 1 1 0 0 1 .177-.333.692.692 0 0 1 .256-.194.764.764 0 0 1 .307-.067zm.5 1.138v-.289a.528.528 0 0 0-.122-.375.4.4 0 0 0-.308-.131.384.384 0 0 0-.335.179.948.948 0 0 0-.122.533.782.782 0 0 0 .117.469.362.362 0 0 0 .3.156.43.43 0 0 0 .182-.04.447.447 0 0 0 .149-.112.527.527 0 0 0 .1-.172.642.642 0 0 0 .04-.219z" transform="translate(-233.984 -335.717)"/>
            <path id="패스_38" data-name="패스 38" class="cls-1" d="M266.542 338.746a.027.027 0 0 1-.033.005.031.031 0 0 1-.015-.029v-.371a1.47 1.47 0 0 1 .349-.172 1.3 1.3 0 0 1 .414-.062.667.667 0 0 1 .507.17.76.76 0 0 1 .16.534v1.316h-.378l-.021-.237a.662.662 0 0 1-.241.2.707.707 0 0 1-.326.077.677.677 0 0 1-.476-.151.557.557 0 0 1-.163-.43.622.622 0 0 1 .172-.452.839.839 0 0 1 .495-.225l.519-.086v-.017a.412.412 0 0 0-.067-.263.306.306 0 0 0-.246-.081.854.854 0 0 0-.313.06 1.221 1.221 0 0 0-.337.214zm.969.615v-.216l-.412.058a.46.46 0 0 0-.266.117.327.327 0 0 0-.095.244.247.247 0 0 0 .077.2.322.322 0 0 0 .215.065.422.422 0 0 0 .179-.04.526.526 0 0 0 .153-.107.573.573 0 0 0 .108-.149.38.38 0 0 0 .041-.172z" transform="translate(-237.791 -337.292)"/>
            <path id="패스_39" data-name="패스 39" class="cls-1" d="m276.242 337.356.529.612h.007a.728.728 0 0 0 .035-.284.809.809 0 0 0-.065-.273c-.012-.03 0-.045.024-.045h.392a1.676 1.676 0 0 1 .012.5 1.5 1.5 0 0 1-.112.4l.543.581h-.55l-.22-.268h-.007a.907.907 0 0 1-.319.242 1.008 1.008 0 0 1-.436.095 1.415 1.415 0 0 1-.361-.041.927.927 0 0 1-.292-.137.8.8 0 0 1-.208-.234.658.658 0 0 1-.077-.333.726.726 0 0 1 .146-.435 2.312 2.312 0 0 1 .424-.424v-.012a1.494 1.494 0 0 1-.1-.119.982.982 0 0 1-.089-.136.765.765 0 0 1-.064-.153.6.6 0 0 1-.024-.174.556.556 0 0 1 .153-.409.6.6 0 0 1 .445-.155.73.73 0 0 1 .479.139.45.45 0 0 1 .166.363.583.583 0 0 1-.041.222.874.874 0 0 1-.1.187 1 1 0 0 1-.137.155c-.051.046-.1.088-.148.127zm-.3.2q-.086.072-.155.139a.907.907 0 0 0-.115.136.621.621 0 0 0-.072.146.545.545 0 0 0-.025.17.418.418 0 0 0 .034.17.4.4 0 0 0 .1.134.458.458 0 0 0 .144.089.492.492 0 0 0 .182.033.68.68 0 0 0 .557-.278v-.007l-.643-.732zm.048-.447a1.227 1.227 0 0 0 .2-.192.375.375 0 0 0 .072-.237.2.2 0 0 0-.051-.148.25.25 0 0 0-.179-.052.194.194 0 0 0-.148.058.238.238 0 0 0-.055.168.545.545 0 0 0 .041.211.737.737 0 0 0 .12.191z" transform="translate(-243.581 -336.006)"/>
            <path id="패스_40" data-name="패스 40" class="cls-1" d="M286.8 338.948h-.007a1.061 1.061 0 0 1-.483-.1.81.81 0 0 1-.318-.27.934.934 0 0 1-.129-.326 2.242 2.242 0 0 1-.036-.43v-1.56h.433v1.533a2.593 2.593 0 0 0 .021.357.54.54 0 0 0 .089.241.463.463 0 0 0 .172.143.58.58 0 0 0 .254.05.481.481 0 0 0 .419-.192.516.516 0 0 0 .093-.241 2.6 2.6 0 0 0 .021-.357v-1.533h.433v1.56a2.239 2.239 0 0 1-.036.43.894.894 0 0 1-.132.326.807.807 0 0 1-.318.27 1.044 1.044 0 0 1-.476.099z" transform="translate(-250.596 -336.071)"/>
            <path id="패스_41" data-name="패스 41" class="cls-1" d="M294.154 336.8a1.046 1.046 0 0 0-.294-.2.822.822 0 0 0-.349-.074q-.423 0-.423.306a.31.31 0 0 0 .095.239.881.881 0 0 0 .259.156l.237.1a1.421 1.421 0 0 1 .483.323.647.647 0 0 1 .17.454.816.816 0 0 1-.069.347.641.641 0 0 1-.194.244.839.839 0 0 1-.3.143 1.483 1.483 0 0 1-.383.046 1.441 1.441 0 0 1-.419-.058.915.915 0 0 1-.344-.192v-.447a.03.03 0 0 1 .017-.029.024.024 0 0 1 .031.005 1.464 1.464 0 0 0 .148.148.853.853 0 0 0 .162.11.809.809 0 0 0 .187.069.972.972 0 0 0 .222.024.563.563 0 0 0 .366-.095.359.359 0 0 0 .112-.29.34.34 0 0 0-.1-.253.988.988 0 0 0-.3-.187l-.237-.1a1.731 1.731 0 0 1-.235-.124.858.858 0 0 1-.186-.156.677.677 0 0 1-.122-.2.717.717 0 0 1-.045-.265.666.666 0 0 1 .062-.3.568.568 0 0 1 .175-.211.821.821 0 0 1 .271-.129 1.27 1.27 0 0 1 .347-.045 1.6 1.6 0 0 1 .175.01 1.3 1.3 0 0 1 .186.034.917.917 0 0 1 .18.067.758.758 0 0 1 .163.108v.4a.03.03 0 0 1-.017.029.024.024 0 0 1-.031-.007z" transform="translate(-255.059 -336.006)"/>
            <path id="패스_42" data-name="패스 42" class="cls-1" d="m299.309 336.267.887 2.657h-.433l-.234-.729h-.9l-.237.729h-.433l.883-2.657zm-.233.388-.068.254-.3.942h.729l-.3-.942z" transform="translate(-258.558 -336.078)"/>
            <path id="패스_43" data-name="패스 43" class="cls-1" d="M308.755 336.8a1.043 1.043 0 0 0-.294-.2.822.822 0 0 0-.349-.074q-.423 0-.423.306a.31.31 0 0 0 .095.239.878.878 0 0 0 .259.156l.237.1a1.421 1.421 0 0 1 .483.323.647.647 0 0 1 .17.454.811.811 0 0 1-.069.347.645.645 0 0 1-.194.244.841.841 0 0 1-.3.143 1.48 1.48 0 0 1-.383.046 1.445 1.445 0 0 1-.419-.058.918.918 0 0 1-.344-.192v-.447a.03.03 0 0 1 .017-.029.024.024 0 0 1 .031.005 1.506 1.506 0 0 0 .148.148.846.846 0 0 0 .162.11.8.8 0 0 0 .187.069.972.972 0 0 0 .222.024.563.563 0 0 0 .366-.095.36.36 0 0 0 .112-.29.34.34 0 0 0-.1-.253.985.985 0 0 0-.3-.187l-.237-.1a1.685 1.685 0 0 1-.235-.124.852.852 0 0 1-.186-.156.679.679 0 0 1-.122-.2.718.718 0 0 1-.045-.265.672.672 0 0 1 .062-.3.568.568 0 0 1 .175-.211.82.82 0 0 1 .272-.129 1.266 1.266 0 0 1 .347-.045 1.589 1.589 0 0 1 .175.01 1.3 1.3 0 0 1 .186.034.916.916 0 0 1 .18.067.757.757 0 0 1 .163.108v.4a.03.03 0 0 1-.017.029.024.024 0 0 1-.032-.007z" transform="translate(-264.642 -336.006)"/>
            <path id="패스_44" data-name="패스 44" class="cls-1" d="M313.721 339.977v1.045h-.421v-2.77h.423l.014.2a.7.7 0 0 1 .213-.177.628.628 0 0 1 .3-.067.711.711 0 0 1 .595.253 1.134 1.134 0 0 1 .2.717 1.527 1.527 0 0 1-.053.414 1.009 1.009 0 0 1-.158.333.748.748 0 0 1-.259.223.759.759 0 0 1-.354.081.569.569 0 0 1-.29-.072.614.614 0 0 1-.2-.179zm-.007-.584a.512.512 0 0 0 .123.371.462.462 0 0 0 .347.127.3.3 0 0 0 .17-.052.449.449 0 0 0 .132-.143.8.8 0 0 0 .086-.22 1.233 1.233 0 0 0 .031-.284 1.31 1.31 0 0 0-.03-.3.517.517 0 0 0-.086-.2.318.318 0 0 0-.137-.108.493.493 0 0 0-.187-.033.342.342 0 0 0-.175.048.527.527 0 0 0-.145.125.591.591 0 0 0-.1.179.639.639 0 0 0-.034.2z" transform="translate(-268.626 -337.351)"/>
            <path id="패스_45" data-name="패스 45" class="cls-1" d="M320.443 339.63a.024.024 0 0 1 .031-.005.03.03 0 0 1 .017.029v.34a.611.611 0 0 1-.3.182 1.479 1.479 0 0 1-.44.062 1.027 1.027 0 0 1-.38-.069.822.822 0 0 1-.3-.2.91.91 0 0 1-.192-.316 1.206 1.206 0 0 1-.069-.423 1.188 1.188 0 0 1 .069-.414.98.98 0 0 1 .19-.323.858.858 0 0 1 .292-.211.915.915 0 0 1 .377-.076.775.775 0 0 1 .627.254 1.087 1.087 0 0 1 .215.722v.137h-1.351v.01a.607.607 0 0 0 .168.426.562.562 0 0 0 .4.141.838.838 0 0 0 .349-.074 1.1 1.1 0 0 0 .297-.192zm-1.186-.636h.884v-.01a.488.488 0 0 0-.107-.34.381.381 0 0 0-.3-.117.437.437 0 0 0-.308.124.6.6 0 0 0-.174.34z" transform="translate(-272.248 -337.351)"/>
            <path id="패스_46" data-name="패스 46" class="cls-1" d="M325.834 338.8a.762.762 0 0 0-.239-.18.7.7 0 0 0-.3-.06.534.534 0 0 0-.241.052.468.468 0 0 0-.17.143.65.65 0 0 0-.1.215 1.009 1.009 0 0 0-.034.268.775.775 0 0 0 .137.485.5.5 0 0 0 .426.179.649.649 0 0 0 .3-.065.772.772 0 0 0 .239-.2.025.025 0 0 1 .031-.01.027.027 0 0 1 .017.027v.375a.735.735 0 0 1-.273.168 1.066 1.066 0 0 1-.332.048 1.2 1.2 0 0 1-.4-.064.847.847 0 0 1-.313-.189.838.838 0 0 1-.2-.314 1.223 1.223 0 0 1-.073-.44 1.25 1.25 0 0 1 .069-.428.919.919 0 0 1 .2-.325.849.849 0 0 1 .309-.206 1.091 1.091 0 0 1 .405-.072 1.017 1.017 0 0 1 .322.048.856.856 0 0 1 .276.155v.371a.026.026 0 0 1-.017.027.025.025 0 0 1-.039-.008z" transform="translate(-275.852 -337.351)"/>
            <path id="패스_47" data-name="패스 47" class="cls-1" d="M329.415 336.282a.259.259 0 0 1 .076-.186.268.268 0 0 1 .3-.057.316.316 0 0 1 .088.058.277.277 0 0 1 .06.084.237.237 0 0 1 0 .2.277.277 0 0 1-.06.084.283.283 0 0 1-.088.057.273.273 0 0 1-.1.021.252.252 0 0 1-.107-.022.284.284 0 0 1-.084-.058.273.273 0 0 1-.057-.082.238.238 0 0 1-.028-.099zm.484.533v1.945h-.43v-1.945z" transform="translate(-279.206 -335.914)"/>
            <path id="패스_48" data-name="패스 48" class="cls-1" d="M331.832 338.746a.027.027 0 0 1-.033.005.031.031 0 0 1-.015-.029v-.371a1.464 1.464 0 0 1 .349-.172 1.293 1.293 0 0 1 .414-.062.667.667 0 0 1 .507.17.76.76 0 0 1 .16.534v1.316h-.378l-.021-.237a.665.665 0 0 1-.241.2.708.708 0 0 1-.327.077.676.676 0 0 1-.476-.151.557.557 0 0 1-.163-.43.621.621 0 0 1 .172-.452.838.838 0 0 1 .495-.225l.519-.086v-.017a.41.41 0 0 0-.067-.263.306.306 0 0 0-.246-.081.856.856 0 0 0-.313.06 1.22 1.22 0 0 0-.336.214zm.969.615v-.216l-.412.058a.461.461 0 0 0-.267.117.327.327 0 0 0-.094.244.247.247 0 0 0 .077.2.322.322 0 0 0 .215.065.422.422 0 0 0 .179-.04.535.535 0 0 0 .153-.107.58.58 0 0 0 .108-.149.38.38 0 0 0 .04-.172z" transform="translate(-280.643 -337.292)"/>
            <path id="패스_49" data-name="패스 49" class="cls-1" d="M338.051 335.717v2.846h-.426v-2.846z" transform="translate(-284.594 -335.717)"/>
            <path id="패스_50" data-name="패스 50" class="cls-1" d="M339.894 336.282a.261.261 0 0 1 .076-.186.268.268 0 0 1 .3-.057.309.309 0 0 1 .087.058.272.272 0 0 1 .06.084.233.233 0 0 1 0 .2.272.272 0 0 1-.06.084.277.277 0 0 1-.087.057.273.273 0 0 1-.1.021.251.251 0 0 1-.107-.022.287.287 0 0 1-.085-.058.27.27 0 0 1-.056-.082.238.238 0 0 1-.028-.099zm.485.533v1.945h-.43v-1.945z" transform="translate(-286.084 -335.914)"/>
            <path id="패스_51" data-name="패스 51" class="cls-1" d="M343.588 338.8a1.608 1.608 0 0 0-.3-.2.7.7 0 0 0-.3-.065.267.267 0 0 0-.182.05.219.219 0 0 0 0 .3.63.63 0 0 0 .16.084l.22.1c.071.032.139.065.2.1a.819.819 0 0 1 .168.119.5.5 0 0 1 .113.155.484.484 0 0 1 .041.208.53.53 0 0 1-.058.249.565.565 0 0 1-.158.189.749.749 0 0 1-.237.12.991.991 0 0 1-.3.043 1.413 1.413 0 0 1-.361-.048 1.037 1.037 0 0 1-.347-.168v-.361a.027.027 0 0 1 .015-.027.034.034 0 0 1 .032 0 1.387 1.387 0 0 0 .322.189.851.851 0 0 0 .325.069.411.411 0 0 0 .246-.058.2.2 0 0 0 .077-.172.179.179 0 0 0-.058-.132.665.665 0 0 0-.189-.115l-.2-.086a2.008 2.008 0 0 1-.223-.112.705.705 0 0 1-.162-.127.5.5 0 0 1-.1-.156.553.553 0 0 1-.035-.206.46.46 0 0 1 .048-.21.5.5 0 0 1 .137-.168.639.639 0 0 1 .216-.112.968.968 0 0 1 .289-.04 1.15 1.15 0 0 1 .314.045 1.072 1.072 0 0 1 .321.162v.361a.027.027 0 0 1-.015.028.034.034 0 0 1-.019-.008z" transform="translate(-287.633 -337.351)"/>
            <path id="패스_52" data-name="패스 52" class="cls-1" d="M347.746 339.01a.031.031 0 0 1 .033-.007.027.027 0 0 1 .015.027v.3a.522.522 0 0 1-.187.091.857.857 0 0 1-.225.029.509.509 0 0 1-.375-.125.523.523 0 0 1-.117-.373V337.8h-.306v-.326h.306v-.454h.419v.454h.474v.326h-.474v1.117a.219.219 0 0 0 .038.144.149.149 0 0 0 .12.045.444.444 0 0 0 .155-.024.474.474 0 0 0 .124-.072z" transform="translate(-290.475 -336.57)"/>
        </g>
    </g>
    <path id="사각형_5349" data-name="사각형 5349" style="fill:none" d="M0 0h92v18H0z"/>
</svg>
